<mxfile host="Electron" agent="Mozilla/5.0 (Macintosh; Intel Mac OS X 10_15_7) AppleWebKit/537.36 (KHTML, like Gecko) draw.io/25.0.2 Chrome/128.0.6613.186 Electron/32.2.5 Safari/537.36" version="25.0.2" pages="2">
  <diagram name="Page-1" id="wbfohKacg5EcNLqGuXIR">
    <mxGraphModel dx="428" dy="238" grid="1" gridSize="10" guides="1" tooltips="1" connect="1" arrows="1" fold="1" page="1" pageScale="1" pageWidth="827" pageHeight="1169" math="0" shadow="0">
      <root>
        <mxCell id="0" />
        <mxCell id="1" parent="0" />
        <mxCell id="2A2-L0LLTwZBl_NN5JdX-2" value="" style="rounded=0;whiteSpace=wrap;html=1;fillColor=#ffe6cc;strokeColor=#d79b00;" vertex="1" parent="1">
          <mxGeometry x="90" y="110" width="40" height="40" as="geometry" />
        </mxCell>
        <mxCell id="2A2-L0LLTwZBl_NN5JdX-3" value="" style="rounded=0;whiteSpace=wrap;html=1;fillColor=#ffe6cc;strokeColor=#d79b00;" vertex="1" parent="1">
          <mxGeometry x="130" y="110" width="40" height="40" as="geometry" />
        </mxCell>
        <mxCell id="2A2-L0LLTwZBl_NN5JdX-4" value="" style="rounded=0;whiteSpace=wrap;html=1;fillColor=#ffe6cc;strokeColor=#d79b00;" vertex="1" parent="1">
          <mxGeometry x="170" y="110" width="40" height="40" as="geometry" />
        </mxCell>
        <mxCell id="2A2-L0LLTwZBl_NN5JdX-5" value="" style="rounded=0;whiteSpace=wrap;html=1;fillColor=#ffe6cc;strokeColor=#d79b00;" vertex="1" parent="1">
          <mxGeometry x="210" y="110" width="40" height="40" as="geometry" />
        </mxCell>
        <mxCell id="2A2-L0LLTwZBl_NN5JdX-7" value="" style="rounded=0;whiteSpace=wrap;html=1;fillColor=#ffe6cc;strokeColor=#d79b00;" vertex="1" parent="1">
          <mxGeometry x="250" y="110" width="40" height="40" as="geometry" />
        </mxCell>
        <mxCell id="2A2-L0LLTwZBl_NN5JdX-8" value="" style="rounded=0;whiteSpace=wrap;html=1;fillColor=#ffe6cc;strokeColor=#d79b00;" vertex="1" parent="1">
          <mxGeometry x="290" y="110" width="40" height="40" as="geometry" />
        </mxCell>
        <mxCell id="2A2-L0LLTwZBl_NN5JdX-9" value="" style="rounded=0;whiteSpace=wrap;html=1;fillColor=#ffe6cc;strokeColor=#d79b00;" vertex="1" parent="1">
          <mxGeometry x="330" y="110" width="40" height="40" as="geometry" />
        </mxCell>
        <mxCell id="2A2-L0LLTwZBl_NN5JdX-10" value="" style="rounded=0;whiteSpace=wrap;html=1;fillColor=#ffe6cc;strokeColor=#d79b00;" vertex="1" parent="1">
          <mxGeometry x="370" y="110" width="40" height="40" as="geometry" />
        </mxCell>
        <mxCell id="2A2-L0LLTwZBl_NN5JdX-11" value="" style="rounded=0;whiteSpace=wrap;html=1;fillColor=#ffe6cc;strokeColor=#d79b00;" vertex="1" parent="1">
          <mxGeometry x="410" y="110" width="40" height="40" as="geometry" />
        </mxCell>
        <mxCell id="2A2-L0LLTwZBl_NN5JdX-12" value="" style="rounded=0;whiteSpace=wrap;html=1;fillColor=#ffe6cc;strokeColor=#d79b00;" vertex="1" parent="1">
          <mxGeometry x="450" y="110" width="40" height="40" as="geometry" />
        </mxCell>
        <mxCell id="2A2-L0LLTwZBl_NN5JdX-19" value="" style="rounded=0;whiteSpace=wrap;html=1;fillColor=#ffe6cc;strokeColor=#d79b00;" vertex="1" parent="1">
          <mxGeometry x="90" y="150" width="40" height="40" as="geometry" />
        </mxCell>
        <mxCell id="2A2-L0LLTwZBl_NN5JdX-20" value="" style="rounded=0;whiteSpace=wrap;html=1;fillColor=#ffe6cc;strokeColor=#d79b00;" vertex="1" parent="1">
          <mxGeometry x="130" y="150" width="40" height="40" as="geometry" />
        </mxCell>
        <mxCell id="2A2-L0LLTwZBl_NN5JdX-21" value="" style="rounded=0;whiteSpace=wrap;html=1;fillColor=#ffe6cc;strokeColor=#d79b00;" vertex="1" parent="1">
          <mxGeometry x="170" y="150" width="40" height="40" as="geometry" />
        </mxCell>
        <mxCell id="2A2-L0LLTwZBl_NN5JdX-22" value="" style="rounded=0;whiteSpace=wrap;html=1;fillColor=#ffe6cc;strokeColor=#d79b00;" vertex="1" parent="1">
          <mxGeometry x="210" y="150" width="40" height="40" as="geometry" />
        </mxCell>
        <mxCell id="2A2-L0LLTwZBl_NN5JdX-23" value="" style="rounded=0;whiteSpace=wrap;html=1;fillColor=#ffe6cc;strokeColor=#d79b00;" vertex="1" parent="1">
          <mxGeometry x="250" y="150" width="40" height="40" as="geometry" />
        </mxCell>
        <mxCell id="2A2-L0LLTwZBl_NN5JdX-24" value="" style="rounded=0;whiteSpace=wrap;html=1;fillColor=#ffe6cc;strokeColor=#d79b00;" vertex="1" parent="1">
          <mxGeometry x="290" y="150" width="40" height="40" as="geometry" />
        </mxCell>
        <mxCell id="2A2-L0LLTwZBl_NN5JdX-25" value="" style="rounded=0;whiteSpace=wrap;html=1;fillColor=#ffe6cc;strokeColor=#d79b00;" vertex="1" parent="1">
          <mxGeometry x="330" y="150" width="40" height="40" as="geometry" />
        </mxCell>
        <mxCell id="2A2-L0LLTwZBl_NN5JdX-26" value="" style="rounded=0;whiteSpace=wrap;html=1;fillColor=#ffe6cc;strokeColor=#d79b00;" vertex="1" parent="1">
          <mxGeometry x="370" y="150" width="40" height="40" as="geometry" />
        </mxCell>
        <mxCell id="2A2-L0LLTwZBl_NN5JdX-27" value="" style="rounded=0;whiteSpace=wrap;html=1;fillColor=#ffe6cc;strokeColor=#d79b00;" vertex="1" parent="1">
          <mxGeometry x="410" y="150" width="40" height="40" as="geometry" />
        </mxCell>
        <mxCell id="2A2-L0LLTwZBl_NN5JdX-28" value="" style="rounded=0;whiteSpace=wrap;html=1;fillColor=#ffe6cc;strokeColor=#d79b00;" vertex="1" parent="1">
          <mxGeometry x="450" y="150" width="40" height="40" as="geometry" />
        </mxCell>
        <mxCell id="2A2-L0LLTwZBl_NN5JdX-35" value="21" style="rounded=0;whiteSpace=wrap;html=1;" vertex="1" parent="1">
          <mxGeometry x="90" y="190" width="40" height="40" as="geometry" />
        </mxCell>
        <mxCell id="2A2-L0LLTwZBl_NN5JdX-36" value="" style="rounded=0;whiteSpace=wrap;html=1;" vertex="1" parent="1">
          <mxGeometry x="130" y="190" width="40" height="40" as="geometry" />
        </mxCell>
        <mxCell id="2A2-L0LLTwZBl_NN5JdX-37" value="" style="rounded=0;whiteSpace=wrap;html=1;" vertex="1" parent="1">
          <mxGeometry x="170" y="190" width="40" height="40" as="geometry" />
        </mxCell>
        <mxCell id="2A2-L0LLTwZBl_NN5JdX-38" value="" style="rounded=0;whiteSpace=wrap;html=1;" vertex="1" parent="1">
          <mxGeometry x="210" y="190" width="40" height="40" as="geometry" />
        </mxCell>
        <mxCell id="2A2-L0LLTwZBl_NN5JdX-39" value="25" style="rounded=0;whiteSpace=wrap;html=1;fillColor=#ffe6cc;strokeColor=#d79b00;" vertex="1" parent="1">
          <mxGeometry x="250" y="190" width="40" height="40" as="geometry" />
        </mxCell>
        <mxCell id="2A2-L0LLTwZBl_NN5JdX-40" value="" style="rounded=0;whiteSpace=wrap;html=1;" vertex="1" parent="1">
          <mxGeometry x="290" y="190" width="40" height="40" as="geometry" />
        </mxCell>
        <mxCell id="2A2-L0LLTwZBl_NN5JdX-41" value="" style="rounded=0;whiteSpace=wrap;html=1;" vertex="1" parent="1">
          <mxGeometry x="330" y="190" width="40" height="40" as="geometry" />
        </mxCell>
        <mxCell id="2A2-L0LLTwZBl_NN5JdX-42" value="" style="rounded=0;whiteSpace=wrap;html=1;" vertex="1" parent="1">
          <mxGeometry x="370" y="190" width="40" height="40" as="geometry" />
        </mxCell>
        <mxCell id="2A2-L0LLTwZBl_NN5JdX-43" value="" style="rounded=0;whiteSpace=wrap;html=1;" vertex="1" parent="1">
          <mxGeometry x="410" y="190" width="40" height="40" as="geometry" />
        </mxCell>
        <mxCell id="2A2-L0LLTwZBl_NN5JdX-44" value="30" style="rounded=0;whiteSpace=wrap;html=1;" vertex="1" parent="1">
          <mxGeometry x="450" y="190" width="40" height="40" as="geometry" />
        </mxCell>
        <mxCell id="2A2-L0LLTwZBl_NN5JdX-51" value="31" style="rounded=0;whiteSpace=wrap;html=1;" vertex="1" parent="1">
          <mxGeometry x="90" y="230" width="40" height="40" as="geometry" />
        </mxCell>
        <mxCell id="2A2-L0LLTwZBl_NN5JdX-52" value="" style="rounded=0;whiteSpace=wrap;html=1;" vertex="1" parent="1">
          <mxGeometry x="130" y="230" width="40" height="40" as="geometry" />
        </mxCell>
        <mxCell id="2A2-L0LLTwZBl_NN5JdX-53" value="" style="rounded=0;whiteSpace=wrap;html=1;" vertex="1" parent="1">
          <mxGeometry x="170" y="230" width="40" height="40" as="geometry" />
        </mxCell>
        <mxCell id="2A2-L0LLTwZBl_NN5JdX-54" value="" style="rounded=0;whiteSpace=wrap;html=1;" vertex="1" parent="1">
          <mxGeometry x="210" y="230" width="40" height="40" as="geometry" />
        </mxCell>
        <mxCell id="2A2-L0LLTwZBl_NN5JdX-55" value="" style="rounded=0;whiteSpace=wrap;html=1;" vertex="1" parent="1">
          <mxGeometry x="250" y="230" width="40" height="40" as="geometry" />
        </mxCell>
        <mxCell id="2A2-L0LLTwZBl_NN5JdX-56" value="" style="rounded=0;whiteSpace=wrap;html=1;" vertex="1" parent="1">
          <mxGeometry x="290" y="230" width="40" height="40" as="geometry" />
        </mxCell>
        <mxCell id="2A2-L0LLTwZBl_NN5JdX-57" value="" style="rounded=0;whiteSpace=wrap;html=1;" vertex="1" parent="1">
          <mxGeometry x="330" y="230" width="40" height="40" as="geometry" />
        </mxCell>
        <mxCell id="2A2-L0LLTwZBl_NN5JdX-58" value="" style="rounded=0;whiteSpace=wrap;html=1;" vertex="1" parent="1">
          <mxGeometry x="370" y="230" width="40" height="40" as="geometry" />
        </mxCell>
        <mxCell id="2A2-L0LLTwZBl_NN5JdX-59" value="" style="rounded=0;whiteSpace=wrap;html=1;" vertex="1" parent="1">
          <mxGeometry x="410" y="230" width="40" height="40" as="geometry" />
        </mxCell>
        <mxCell id="2A2-L0LLTwZBl_NN5JdX-60" value="40" style="rounded=0;whiteSpace=wrap;html=1;" vertex="1" parent="1">
          <mxGeometry x="450" y="230" width="40" height="40" as="geometry" />
        </mxCell>
        <mxCell id="2A2-L0LLTwZBl_NN5JdX-67" value="300" style="rounded=0;whiteSpace=wrap;html=1;fillColor=#ffe6cc;strokeColor=#d79b00;" vertex="1" parent="1">
          <mxGeometry x="650" y="180" width="70" height="40" as="geometry" />
        </mxCell>
        <mxCell id="2A2-L0LLTwZBl_NN5JdX-68" value="0x25" style="text;html=1;align=left;verticalAlign=middle;whiteSpace=wrap;rounded=0;fontStyle=1" vertex="1" parent="1">
          <mxGeometry x="650" y="150" width="70" height="30" as="geometry" />
        </mxCell>
        <mxCell id="2A2-L0LLTwZBl_NN5JdX-69" value="num" style="text;html=1;align=left;verticalAlign=middle;whiteSpace=wrap;rounded=0;fontStyle=1" vertex="1" parent="1">
          <mxGeometry x="650" y="220" width="70" height="30" as="geometry" />
        </mxCell>
        <mxCell id="b8QZOCz1Ex-f8M6msDm2-1" value="&lt;div style=&quot;color: #abb2bf;background-color: #282c34;font-family: Menlo, Monaco, &#39;Courier New&#39;, monospace;font-weight: normal;font-size: 32px;line-height: 48px;white-space: pre;&quot;&gt;&lt;div&gt;&lt;span style=&quot;color: #c678dd;&quot;&gt;let&lt;/span&gt;&lt;span style=&quot;color: #abb2bf;&quot;&gt; &lt;/span&gt;&lt;span style=&quot;color: #e06c75;&quot;&gt;num1&lt;/span&gt;&lt;span style=&quot;color: #abb2bf;&quot;&gt; &lt;/span&gt;&lt;span style=&quot;color: #56b6c2;&quot;&gt;=&lt;/span&gt;&lt;span style=&quot;color: #abb2bf;&quot;&gt; &lt;/span&gt;&lt;span style=&quot;color: #d19a66;&quot;&gt;100&lt;/span&gt;&lt;/div&gt;&lt;/div&gt;" style="text;whiteSpace=wrap;html=1;" vertex="1" parent="1">
          <mxGeometry x="100" y="360" width="300" height="70" as="geometry" />
        </mxCell>
        <mxCell id="b8QZOCz1Ex-f8M6msDm2-2" value="100" style="rounded=0;whiteSpace=wrap;html=1;fillColor=#ffe6cc;strokeColor=#d79b00;" vertex="1" parent="1">
          <mxGeometry x="450" y="370" width="70" height="40" as="geometry" />
        </mxCell>
        <mxCell id="b8QZOCz1Ex-f8M6msDm2-3" value="0x1000" style="text;html=1;align=left;verticalAlign=middle;whiteSpace=wrap;rounded=0;fontStyle=1" vertex="1" parent="1">
          <mxGeometry x="450" y="340" width="70" height="30" as="geometry" />
        </mxCell>
        <mxCell id="b8QZOCz1Ex-f8M6msDm2-4" value="num1" style="text;html=1;align=left;verticalAlign=middle;whiteSpace=wrap;rounded=0;fontStyle=1" vertex="1" parent="1">
          <mxGeometry x="450" y="410" width="70" height="30" as="geometry" />
        </mxCell>
        <mxCell id="b8QZOCz1Ex-f8M6msDm2-5" value="&lt;div style=&quot;color: #abb2bf;background-color: #282c34;font-family: Menlo, Monaco, &#39;Courier New&#39;, monospace;font-weight: normal;font-size: 32px;line-height: 48px;white-space: pre;&quot;&gt;&lt;div&gt;&lt;span style=&quot;color: #c678dd;&quot;&gt;let&lt;/span&gt;&lt;span style=&quot;color: #abb2bf;&quot;&gt; &lt;/span&gt;&lt;span style=&quot;color: #e06c75;&quot;&gt;num2&lt;/span&gt;&lt;span style=&quot;color: #abb2bf;&quot;&gt; &lt;/span&gt;&lt;span style=&quot;color: #56b6c2;&quot;&gt;=&lt;/span&gt;&lt;span style=&quot;color: #abb2bf;&quot;&gt; &lt;/span&gt;&lt;span style=&quot;color: #e06c75;&quot;&gt;num1&lt;/span&gt;&lt;/div&gt;&lt;/div&gt;" style="text;whiteSpace=wrap;html=1;" vertex="1" parent="1">
          <mxGeometry x="100" y="500" width="320" height="70" as="geometry" />
        </mxCell>
        <mxCell id="b8QZOCz1Ex-f8M6msDm2-6" value="100" style="rounded=0;whiteSpace=wrap;html=1;fillColor=#ffe6cc;strokeColor=#d79b00;" vertex="1" parent="1">
          <mxGeometry x="450" y="510" width="70" height="40" as="geometry" />
        </mxCell>
        <mxCell id="b8QZOCz1Ex-f8M6msDm2-7" value="0x2000" style="text;html=1;align=left;verticalAlign=middle;whiteSpace=wrap;rounded=0;fontStyle=1" vertex="1" parent="1">
          <mxGeometry x="450" y="480" width="70" height="30" as="geometry" />
        </mxCell>
        <mxCell id="b8QZOCz1Ex-f8M6msDm2-8" value="num2" style="text;html=1;align=left;verticalAlign=middle;whiteSpace=wrap;rounded=0;fontStyle=1" vertex="1" parent="1">
          <mxGeometry x="450" y="550" width="70" height="30" as="geometry" />
        </mxCell>
        <mxCell id="b8QZOCz1Ex-f8M6msDm2-9" value="&lt;div style=&quot;color: #abb2bf;background-color: #282c34;font-family: Menlo, Monaco, &#39;Courier New&#39;, monospace;font-weight: normal;font-size: 32px;line-height: 48px;white-space: pre;&quot;&gt;&lt;div&gt;&lt;span style=&quot;color: #e06c75;&quot;&gt;num1&lt;/span&gt;&lt;span style=&quot;color: #abb2bf;&quot;&gt; &lt;/span&gt;&lt;span style=&quot;color: #56b6c2;&quot;&gt;=&lt;/span&gt;&lt;span style=&quot;color: #abb2bf;&quot;&gt; &lt;/span&gt;&lt;span style=&quot;color: #d19a66;&quot;&gt;200&lt;/span&gt;&lt;/div&gt;&lt;/div&gt;" style="text;whiteSpace=wrap;html=1;" vertex="1" parent="1">
          <mxGeometry x="620" y="360" width="230" height="70" as="geometry" />
        </mxCell>
      </root>
    </mxGraphModel>
  </diagram>
  <diagram id="747Yz_gz0qEYDdXPrdja" name="Page-2">
    <mxGraphModel dx="1582" dy="420" grid="1" gridSize="10" guides="1" tooltips="1" connect="1" arrows="1" fold="1" page="1" pageScale="1" pageWidth="827" pageHeight="1169" math="0" shadow="0">
      <root>
        <mxCell id="0" />
        <mxCell id="1" parent="0" />
        <mxCell id="0L_kX2kutK-YHjtQCcZb-1" value="&lt;div style=&quot;color: #abb2bf;background-color: #282c34;font-family: Menlo, Monaco, &#39;Courier New&#39;, monospace;font-weight: normal;font-size: 32px;line-height: 48px;white-space: pre;&quot;&gt;&lt;div&gt;&lt;span style=&quot;color: #c678dd;&quot;&gt;function&lt;/span&gt;&lt;span style=&quot;color: #abb2bf;&quot;&gt; &lt;/span&gt;&lt;span style=&quot;color: #61afef;&quot;&gt;function1&lt;/span&gt;&lt;span style=&quot;color: #abb2bf;&quot;&gt;() {&lt;/span&gt;&lt;/div&gt;&lt;div&gt;&lt;span style=&quot;color: #abb2bf;&quot;&gt;  &lt;/span&gt;&lt;span style=&quot;color: #e5c07b;&quot;&gt;console&lt;/span&gt;&lt;span style=&quot;color: #abb2bf;&quot;&gt;.&lt;/span&gt;&lt;span style=&quot;color: #61afef;&quot;&gt;log&lt;/span&gt;&lt;span style=&quot;color: #abb2bf;&quot;&gt;(&lt;/span&gt;&lt;span style=&quot;color: #98c379;&quot;&gt;&#39;inside function1&#39;&lt;/span&gt;&lt;span style=&quot;color: #abb2bf;&quot;&gt;)&lt;/span&gt;&lt;/div&gt;&lt;div&gt;&lt;span style=&quot;color: #abb2bf;&quot;&gt;}&lt;/span&gt;&lt;/div&gt;&lt;/div&gt;" style="text;whiteSpace=wrap;html=1;" vertex="1" parent="1">
          <mxGeometry x="30" y="50" width="560" height="170" as="geometry" />
        </mxCell>
        <mxCell id="SUVGAB1eCTwDoUX41WNX-1" value="0x20000" style="rounded=0;whiteSpace=wrap;html=1;fillColor=#d5e8d4;strokeColor=#82b366;fontStyle=1;fontSize=17;" vertex="1" parent="1">
          <mxGeometry x="160" y="350" width="150" height="70" as="geometry" />
        </mxCell>
        <mxCell id="SUVGAB1eCTwDoUX41WNX-2" value="function1&lt;div&gt;reference&lt;/div&gt;" style="text;html=1;align=left;verticalAlign=middle;whiteSpace=wrap;rounded=0;fontStyle=1;fontSize=16;" vertex="1" parent="1">
          <mxGeometry x="160" y="420" width="150" height="50" as="geometry" />
        </mxCell>
        <mxCell id="SUVGAB1eCTwDoUX41WNX-3" value="0x10000" style="text;html=1;align=left;verticalAlign=middle;whiteSpace=wrap;rounded=0;fontStyle=1;fontSize=16;" vertex="1" parent="1">
          <mxGeometry x="160" y="320" width="150" height="30" as="geometry" />
        </mxCell>
        <UserObject label="function function1() {&#xa;&amp;nbsp; console.log(&#39;inside function1&#39;)&#xa;}" link="function function1() {&#xa;  console.log(&#39;inside function1&#39;)&#xa;}" id="SUVGAB1eCTwDoUX41WNX-4">
          <mxCell style="rounded=0;whiteSpace=wrap;html=1;fillColor=#dae8fc;strokeColor=#6c8ebf;fontStyle=1;fontSize=17;align=left;spacingLeft=13;" vertex="1" parent="1">
            <mxGeometry x="531" y="490" width="296" height="90" as="geometry" />
          </mxCell>
        </UserObject>
        <mxCell id="SUVGAB1eCTwDoUX41WNX-5" value="object of type function" style="text;html=1;align=left;verticalAlign=middle;whiteSpace=wrap;rounded=0;fontStyle=1;fontSize=16;" vertex="1" parent="1">
          <mxGeometry x="531" y="580" width="296" height="30" as="geometry" />
        </mxCell>
        <mxCell id="SUVGAB1eCTwDoUX41WNX-6" value="0x20000" style="text;html=1;align=left;verticalAlign=middle;whiteSpace=wrap;rounded=0;fontStyle=1;fontSize=16;" vertex="1" parent="1">
          <mxGeometry x="531" y="460" width="150" height="30" as="geometry" />
        </mxCell>
        <mxCell id="SUVGAB1eCTwDoUX41WNX-7" style="edgeStyle=orthogonalEdgeStyle;rounded=0;orthogonalLoop=1;jettySize=auto;html=1;entryX=0.004;entryY=0.397;entryDx=0;entryDy=0;entryPerimeter=0;" edge="1" parent="1" source="SUVGAB1eCTwDoUX41WNX-1" target="SUVGAB1eCTwDoUX41WNX-4">
          <mxGeometry relative="1" as="geometry">
            <Array as="points">
              <mxPoint x="420" y="385" />
              <mxPoint x="420" y="526" />
            </Array>
          </mxGeometry>
        </mxCell>
        <mxCell id="M-F1i13QhiT9SIp9hCCZ-1" value="&lt;div style=&quot;color: #abb2bf;background-color: #282c34;font-family: Menlo, Monaco, &#39;Courier New&#39;, monospace;font-weight: normal;font-size: 32px;line-height: 48px;white-space: pre;&quot;&gt;&lt;div&gt;&lt;span style=&quot;color: #c678dd;&quot;&gt;const&lt;/span&gt;&lt;span style=&quot;color: #abb2bf;&quot;&gt; &lt;/span&gt;&lt;span style=&quot;color: #61afef;&quot;&gt;function2&lt;/span&gt;&lt;span style=&quot;color: #abb2bf;&quot;&gt; &lt;/span&gt;&lt;span style=&quot;color: #56b6c2;&quot;&gt;=&lt;/span&gt;&lt;span style=&quot;color: #abb2bf;&quot;&gt; &lt;/span&gt;&lt;span style=&quot;color: #61afef;&quot;&gt;function1&lt;/span&gt;&lt;/div&gt;&lt;/div&gt;" style="text;whiteSpace=wrap;html=1;" vertex="1" parent="1">
          <mxGeometry x="-190" y="515" width="560" height="70" as="geometry" />
        </mxCell>
        <mxCell id="kDt0se2-7_fBGGjppPi4-2" style="edgeStyle=orthogonalEdgeStyle;rounded=0;orthogonalLoop=1;jettySize=auto;html=1;entryX=0;entryY=0.75;entryDx=0;entryDy=0;" edge="1" parent="1" source="M-F1i13QhiT9SIp9hCCZ-2" target="SUVGAB1eCTwDoUX41WNX-4">
          <mxGeometry relative="1" as="geometry" />
        </mxCell>
        <mxCell id="M-F1i13QhiT9SIp9hCCZ-2" value="0x20000" style="rounded=0;whiteSpace=wrap;html=1;fillColor=#d5e8d4;strokeColor=#82b366;fontStyle=1;fontSize=17;" vertex="1" parent="1">
          <mxGeometry x="160" y="670" width="150" height="70" as="geometry" />
        </mxCell>
        <mxCell id="M-F1i13QhiT9SIp9hCCZ-3" value="function2&lt;div&gt;reference&lt;/div&gt;" style="text;html=1;align=left;verticalAlign=middle;whiteSpace=wrap;rounded=0;fontStyle=1;fontSize=16;" vertex="1" parent="1">
          <mxGeometry x="160" y="740" width="150" height="50" as="geometry" />
        </mxCell>
        <mxCell id="M-F1i13QhiT9SIp9hCCZ-4" value="0x15000" style="text;html=1;align=left;verticalAlign=middle;whiteSpace=wrap;rounded=0;fontStyle=1;fontSize=16;" vertex="1" parent="1">
          <mxGeometry x="160" y="640" width="150" height="30" as="geometry" />
        </mxCell>
      </root>
    </mxGraphModel>
  </diagram>
</mxfile>
